<?xml version="1.0" encoding="UTF-8" standalone="no"?>
<!-- Created with Inkscape (http://www.inkscape.org/) -->

<svg
   width="170.89384"
   height="170.88916"
   viewBox="0 0 170.89384 170.88916"
   version="1.1"
   id="svg1"
   xml:space="preserve"
   xmlns="http://www.w3.org/2000/svg"
   xmlns:svg="http://www.w3.org/2000/svg"><defs
     id="defs1" /><g
     id="layer1"
     transform="translate(-19.389526,-59.61582)"><g
       id="g1"
       transform="translate(0.3074763,-0.17911593)"><path
         id="path9"
         style="fill:#ff6600;stroke-width:0.573178"
         d="m 104.9135,95.334233 c -0.93264,-0.03689 -1.48347,0.523787 -2.74195,1.282609 -1.16576,0.702915 -2.801863,1.700122 -3.635961,2.216402 -0.834086,0.51627 -5.304027,3.275946 -9.933244,6.132446 -10.070604,6.21415 -20.51397,12.71991 -21.734074,13.53922 -1.090947,0.73259 -1.509478,1.35242 -1.418518,2.10117 0.03661,0.30124 0.181193,0.72233 0.321427,0.93637 0.153822,0.23474 2.402214,1.66764 5.666321,3.61063 4.204474,2.50275 22.153608,13.26059 26.508459,15.88792 0.407677,0.24596 1.792903,1.06761 3.07837,1.82625 1.28548,0.75866 2.3953,1.37976 2.466,1.37976 0.0708,0 0.11049,-3.31979 0.0889,-7.37681 l -0.0393,-7.3763 -0.64389,-0.19016 c -1.02663,-0.30309 -2.1549,-1.12226 -2.85461,-2.07275 -0.890227,-1.2093 -1.194542,-2.17321 -1.191142,-3.78219 0.002,-1.20462 0.04787,-1.40295 0.565857,-2.45102 2.030455,-4.10833 7.035325,-4.93922 10.118255,-1.67948 0.4238,0.44812 0.95441,1.20741 1.17926,1.68723 0.36645,0.78178 0.40876,1.04555 0.40876,2.54042 0,1.50892 -0.039,1.74879 -0.41238,2.50837 -0.77226,1.571 -2.1655,2.8127 -3.64474,3.24942 l -0.64389,0.19016 -0.0393,7.3763 c -0.0273,5.11599 0.009,7.37681 0.12092,7.37681 0.0883,0 0.36278,-0.10482 0.60978,-0.23254 0.74271,-0.38406 31.83493,-18.98458 35.39732,-21.17597 2.07568,-1.27685 2.50731,-1.76571 2.50631,-2.84066 -8.6e-4,-1.05326 -0.37725,-1.52066 -1.99161,-2.47116 -0.78092,-0.45979 -4.14948,-2.48739 -7.48585,-4.50619 -3.33636,-2.01881 -11.31932,-6.82202 -17.73948,-10.67377 -8.7171,-5.229774 -11.33164,-6.951008 -12.88604,-7.012487 z m 0.24082,24.677047 c -0.28286,-0.002 -0.57587,0.0352 -0.88109,0.1111 -2.85265,0.70965 -3.7621,4.23986 -1.57458,6.11229 0.35234,0.30158 0.89037,0.61867 1.19579,0.70487 0.8549,0.24144 2.1918,0.10059 2.93729,-0.30954 0.87261,-0.48006 1.58579,-1.56091 1.71566,-2.60036 0.15348,-1.2284 -0.11853,-1.98354 -1.04955,-2.91455 -0.73639,-0.73615 -1.49497,-1.09733 -2.34352,-1.10381 z" /><path
         id="path7"
         style="fill:#0066ff;stroke-width:0.573178"
         d="m 130.56723,133.62595 c -0.0751,-10e-4 -0.15073,0.005 -0.24856,0.005 -0.56472,8e-5 -0.9352,0.14403 -1.98334,0.77101 -3.61746,2.16388 -13.01595,7.69688 -18.38803,10.82518 l -3.60184,2.09755 v 2.70267 2.70268 l 0.82424,0.4036 c 2.29636,1.12443 3.33018,3.50494 2.57452,5.92883 -0.34498,1.10657 -1.59202,2.43161 -2.67839,2.84582 l -0.72037,0.27441 v 3.46748 c 0,2.70835 0.0423,3.46749 0.19327,3.46749 0.30413,0 6.60589,-3.77361 23.54068,-14.09733 0.91751,-0.55932 2.62326,-1.59903 3.79098,-2.31045 1.16773,-0.71141 3.62462,-2.2129 5.45962,-3.33675 1.83501,-1.12387 3.9198,-2.39368 4.63279,-2.82153 1.39451,-0.83683 1.81281,-1.38202 1.81281,-2.36368 0,-0.99477 -0.43601,-1.35262 -6.0663,-4.97954 -8.10274,-5.21964 -8.61605,-5.57531 -9.14208,-5.58261 z m -50.937464,0.005 c -0.604491,0 -1.055403,0.25427 -5.058606,2.85306 -9.12428,5.92328 -9.724719,6.34538 -9.999907,7.03316 -0.449161,1.12256 0.0034,2.08583 1.324467,2.81843 0.43591,0.24174 2.532717,1.51799 4.659664,2.836 2.126937,1.318 6.187304,3.79726 9.023222,5.50974 2.835919,1.71247 6.999064,4.25062 9.251115,5.64049 5.552699,3.42687 8.270618,5.0961 11.677319,7.17165 1.58479,0.96553 2.93258,1.75979 2.99518,1.76579 0.0625,0.006 0.11348,-1.57628 0.11317,-3.51555 l -5.2e-4,-3.5264 -0.68471,-0.28112 c -0.91972,-0.37824 -1.89761,-1.36041 -2.42208,-2.43241 -1.106339,-2.26125 -0.13489,-5.05377 2.1885,-6.29212 l 0.92605,-0.49403 -0.0413,-2.75022 -0.0413,-2.75074 -0.83405,-0.47749 c -0.45875,-0.26263 -2.744857,-1.60227 -5.080323,-2.97656 -2.335458,-1.37427 -5.645214,-3.31883 -7.355107,-4.3217 -1.709893,-1.00287 -4.132499,-2.42499 -5.383651,-3.16001 -4.328565,-2.54297 -4.541025,-2.64997 -5.257043,-2.64997 z" /><path
         id="path5"
         style="fill:#0066ff;stroke-width:0.573178"
         d="m 130.26899,158.05363 c -0.56534,-0.007 -1.0249,0.3186 -1.86575,0.84831 -5.21386,3.28457 -10.39268,6.42392 -18.98481,11.50848 l -3.06921,1.81658 -0.002,1.93357 c -10e-4,1.53393 0.0413,1.93359 0.20556,1.93359 0.11392,0 0.68456,0.23875 1.26832,0.53078 1.26829,0.6345 2.31968,1.6965 2.89505,2.92408 0.36362,0.77581 0.40667,1.04298 0.40667,2.53544 0,1.56063 -0.0312,1.73393 -0.48309,2.688 -0.87637,1.84996 -2.61048,3.12146 -4.73502,3.47233 -4.07647,0.67322 -7.707352,-3.0153 -6.995026,-7.10578 0.371226,-2.13174 1.778096,-3.93725 3.662206,-4.69978 l 1.04025,-0.4209 0.002,-1.90218 0.002,-1.90218 -1.02366,-0.59418 c -1.39237,-0.80816 -10.533787,-6.30421 -13.990024,-8.41113 -1.543081,-0.94065 -3.28329,-1.99897 -3.867157,-2.35211 -0.583867,-0.35314 -1.841256,-1.12969 -2.794041,-1.72565 -2.461608,-1.5397 -2.190259,-1.5867 -6.263697,1.08083 -1.812099,1.18668 -4.947792,3.21558 -6.968345,4.50843 -4.010734,2.56624 -4.813063,3.20887 -4.850551,3.88701 -0.08567,1.55118 -0.01317,1.63021 3.488918,3.78925 1.722625,1.06201 4.77015,2.96482 6.771971,4.22852 8.989,5.67456 29.661136,18.32216 30.203916,18.47921 l 5.9e-4,-3e-4 c 0.15299,0.0444 0.63229,0.0561 1.06513,0.0258 0.70977,-0.0496 1.23046,-0.32244 5.30786,-2.77922 11.1983,-6.74739 22.18982,-13.54271 31.56167,-19.51264 2.61844,-1.66797 3.5974,-2.37302 3.77771,-2.72028 0.34036,-0.65549 0.31449,-1.67643 -0.0551,-2.17143 -0.16505,-0.22107 -1.83126,-1.3911 -3.70277,-2.60032 -1.87152,-1.20923 -5.17034,-3.34622 -7.3306,-4.74865 -2.80003,-1.81776 -3.85249,-2.53429 -4.67874,-2.54345 z m -25.11433,20.53777 c -0.28508,-0.009 -0.57677,0.0173 -0.87082,0.0826 -1.59855,0.35513 -2.61638,1.5489 -2.75109,3.22708 -0.12264,1.52778 0.57784,2.71689 2.00112,3.39769 2.1415,1.02435 4.75289,-0.42115 5.03299,-2.78604 0.24647,-2.08113 -1.41664,-3.85941 -3.4122,-3.92137 z" /></g><path
       style="fill:#ff6600"
       d="m 104.14997,230.41042 c -0.15525,-0.045 -0.47707,-0.21604 -0.71518,-0.38012 -0.39361,-0.27125 -0.64126,-0.64446 -2.72765,-4.11051 l -2.294737,-3.81218 -1.03326,-0.11166 c -0.56829,-0.0614 -1.09975,-0.10184 -1.18102,-0.0898 -0.0813,0.012 -1.44603,1.45714 -3.03278,3.21142 -2.52047,2.7866 -2.95406,3.22651 -3.43154,3.48162 -0.4187,0.2237 -0.65765,0.29201 -1.02156,0.29201 -0.8558,0 -1.63027,-0.39766 -2.07072,-1.06324 -0.12008,-0.18145 -0.8694,-2.14877 -1.66515,-4.37183 -0.79576,-2.22306 -1.45668,-4.05178 -1.46872,-4.06382 -0.0377,-0.0377 -2.10239,-0.65395 -2.19096,-0.65395 -0.0463,0 -1.61626,1.13679 -3.488918,2.5262 -1.872656,1.38941 -3.583812,2.60742 -3.802569,2.70668 -0.794453,0.36047 -1.871676,0.18716 -2.585121,-0.41592 -0.609448,-0.51517 -0.686439,-0.82043 -1.372703,-5.44248 -0.348235,-2.3454 -0.662996,-4.29327 -0.699468,-4.32859 -0.09137,-0.0885 -1.925239,-1.06572 -1.999932,-1.06572 -0.03316,0 -1.350222,0.60983 -2.926805,1.35517 -1.576584,0.74534 -3.351696,1.58429 -3.944694,1.86435 -1.033565,0.48811 -1.107919,0.50909 -1.796963,0.50704 -0.509454,-0.001 -0.803472,-0.0478 -1.009578,-0.15891 -0.504643,-0.27207 -0.943417,-0.72063 -1.160137,-1.18602 -0.262863,-0.56447 -0.264249,-0.79705 -0.03214,-5.39154 0.09736,-1.92724 0.175894,-3.6658 0.174512,-3.86347 -0.0026,-0.37264 -0.103879,-0.47565 -1.573754,-1.60074 -0.209782,-0.16057 -0.279542,-0.14663 -4.381196,0.87602 -2.777576,0.69252 -4.3294,1.03853 -4.651778,1.03722 -1.240289,-0.005 -2.322485,-1.08182 -2.324769,-2.3131 -5.69e-4,-0.30694 0.364477,-1.93258 1.039057,-4.62718 0.881164,-3.5198 1.022964,-4.18143 0.928785,-4.33369 -0.06113,-0.0988 -0.391945,-0.51326 -0.73514,-0.92095 -0.571746,-0.67918 -0.651392,-0.74119 -0.951248,-0.74059 -0.179991,3.6e-4 -1.90409,0.0809 -3.831332,0.17904 -4.582629,0.2333 -4.825823,0.23188 -5.391544,-0.0316 -0.465388,-0.21672 -0.913948,-0.65549 -1.186014,-1.16013 -0.111117,-0.20611 -0.157397,-0.50013 -0.158914,-1.00958 l -0.0021,-0.71879 1.864349,-3.94076 c 1.025392,-2.16742 1.864349,-3.97073 1.864349,-4.00734 0,-0.0741 -0.973591,-1.8972 -1.068508,-2.00085 -0.03307,-0.0361 -1.959168,-0.3492 -4.280222,-0.69575 -2.321053,-0.34654 -4.382326,-0.69067 -4.580605,-0.76471 -1.224785,-0.45739 -1.86485,-2.00382 -1.323438,-3.19749 0.09922,-0.21876 1.317225,-1.92767 2.706675,-3.79758 1.38945,-1.86991 2.526273,-3.43709 2.526273,-3.48263 0,-0.0824 -0.620886,-2.1693 -0.655642,-2.20377 -0.01002,-0.01 -1.837644,-0.67043 -4.061386,-1.46777 -2.223741,-0.79734 -4.191514,-1.54717 -4.372827,-1.66629 -0.664127,-0.43634 -1.062985,-1.21268 -1.062985,-2.069 0,-0.36409 0.06819,-0.60245 0.292006,-1.02069 0.254665,-0.4759 0.699895,-0.91471 3.481616,-3.43148 1.754285,-1.58719 3.199424,-2.95232 3.211421,-3.03364 0.012,-0.0813 -0.02844,-0.6128 -0.08985,-1.18109 l -0.111697,-1.03326 -3.812174,-2.29474 c -3.453926,-2.07909 -3.839977,-2.33508 -4.108026,-2.72405 -0.642712,-0.93263 -0.642712,-1.87806 0,-2.8107 0.268049,-0.38896 0.6541,-0.64496 4.108026,-2.72405 l 3.812174,-2.29474 0.11166,-1.03325 c 0.06141,-0.56829 0.101845,-1.09979 0.08985,-1.1811 -0.012,-0.0813 -1.457136,-1.44645 -3.211421,-3.03364 -2.781721,-2.51676 -3.226951,-2.95558 -3.481616,-3.43147 -0.223813,-0.41824 -0.292006,-0.65661 -0.292006,-1.02069 0,-0.83621 0.352959,-1.55444 0.991045,-2.01667 0.205506,-0.14887 1.942895,-0.82044 4.422155,-1.70934 l 4.08366,-1.46413 0.32799,-1.06157 c 0.180394,-0.58387 0.32799,-1.10125 0.32799,-1.14974 0,-0.0485 -1.136823,-1.6181 -2.526273,-3.48801 -1.38945,-1.86992 -2.607454,-3.57883 -2.706675,-3.79758 -0.541412,-1.19367 0.09865,-2.7401 1.323438,-3.19749 0.253091,-0.0945 8.461812,-1.39135 8.806989,-1.39135 0.04196,0 1.122346,-1.99463 1.122346,-2.0721 0,-0.0354 -0.838957,-1.83778 -1.864349,-4.0052 l -1.864349,-3.940764 0.0021,-0.718785 c 0.0015,-0.509455 0.0478,-0.803473 0.158914,-1.009579 0.272066,-0.504643 0.720626,-0.943416 1.186014,-1.160136 0.565721,-0.263443 0.808915,-0.264867 5.391544,-0.03157 1.927242,0.09812 3.650936,0.178687 3.830431,0.179045 0.299585,5.98e-4 0.378508,-0.0616 0.962128,-0.758288 0.349674,-0.417416 0.680893,-0.831841 0.736041,-0.920943 0.07973,-0.128825 -0.112718,-1.012778 -0.939665,-4.316004 -0.67458,-2.694594 -1.039626,-4.320239 -1.039057,-4.627179 0.0023,-1.231273 1.08448,-2.308035 2.324769,-2.313094 0.322398,-0.0013 1.875047,0.344909 4.654827,1.037978 3.553379,0.885945 4.193586,1.022398 4.323117,0.921419 0.08363,-0.06519 0.48561,-0.393672 0.893296,-0.729955 0.686231,-0.566042 0.741127,-0.636098 0.739624,-0.943881 -8.93e-4,-0.182852 -0.08128,-1.909293 -0.178648,-3.836536 -0.23211,-4.594488 -0.230724,-4.827067 0.03214,-5.391543 0.21672,-0.465387 0.655494,-0.913948 1.160137,-1.186013 0.206106,-0.111117 0.500124,-0.157398 1.009578,-0.158915 0.689044,-0.0021 0.763398,0.01893 1.796963,0.507046 0.592998,0.280053 2.36811,1.11901 3.944694,1.864349 1.576583,0.74534 2.893646,1.355163 2.926805,1.355163 0.07469,0 1.908563,-0.977226 1.999932,-1.065716 0.03647,-0.03532 0.351233,-1.983189 0.699468,-4.328591 0.686264,-4.622057 0.763255,-4.927308 1.372703,-5.442481 0.713445,-0.603081 1.790668,-0.776394 2.585121,-0.415917 0.218757,0.09926 1.929913,1.317263 3.802569,2.706675 1.872658,1.389412 3.442668,2.526204 3.488918,2.526204 0.0886,0 2.15327,-0.61627 2.19096,-0.653953 0.012,-0.01204 0.67296,-1.840759 1.46872,-4.063819 0.79575,-2.22306 1.54507,-4.190386 1.66515,-4.371835 0.44045,-0.665576 1.21492,-1.063233 2.07072,-1.063233 0.36382,0 0.60307,0.06836 1.022,0.292006 0.47821,0.255297 0.90969,0.692988 3.43218,3.481616 1.58687,1.754285 2.95142,3.199425 3.03234,3.211421 0.0809,0.012 0.61209,-0.02844 1.18038,-0.08985 l 1.03326,-0.11166 2.294744,-3.812174 c 2.07909,-3.453926 2.33508,-3.839976 2.72405,-4.108026 0.93264,-0.642712 1.87806,-0.642712 2.8107,0 0.38897,0.26805 0.64496,0.6541 2.72405,4.108026 l 2.29474,3.812174 1.03326,0.11166 c 0.56829,0.06141 1.09946,0.101845 1.18038,0.08985 0.0809,-0.012 1.44547,-1.457136 3.03234,-3.211421 2.52249,-2.788628 2.95397,-3.226319 3.43218,-3.481616 0.41695,-0.222589 0.65878,-0.292006 1.01729,-0.292006 0.91816,0 1.72784,0.449944 2.15419,1.197103 0.11777,0.206382 0.8499,2.158602 1.62696,4.338267 l 1.41283,3.963028 1.11661,0.3422 1.11661,0.3422 0.37857,-0.268964 c 0.20821,-0.147931 1.80112,-1.323176 3.5398,-2.611656 1.73868,-1.28848 3.31537,-2.393563 3.50377,-2.45574 0.79029,-0.260819 1.77479,-0.06232 2.42753,0.48944 0.60358,0.510212 0.68885,0.842245 1.32943,5.176355 0.32502,2.199033 0.61401,4.128655 0.6422,4.288047 0.0462,0.261305 0.14903,0.343038 1.04548,0.831096 0.54684,0.297709 1.02325,0.54129 1.05869,0.54129 0.0354,0 1.83778,-0.838957 4.0052,-1.864349 l 3.94077,-1.864349 0.71878,0.0021 c 0.50946,0.0015 0.80347,0.0478 1.00958,0.158915 0.50464,0.272065 0.94342,0.720626 1.16014,1.186013 0.26344,0.565722 0.26486,0.808915 0.0316,5.391543 -0.0981,1.927243 -0.17868,3.650937 -0.17904,3.830433 -6e-4,0.299584 0.0616,0.378507 0.75828,0.962127 0.41742,0.349675 0.83185,0.680893 0.92095,0.736041 0.12882,0.07973 1.01278,-0.112718 4.316,-0.939665 2.72101,-0.681193 4.31723,-1.039254 4.62718,-1.037961 1.2294,0.0051 2.31192,1.087126 2.31419,2.313094 5.7e-4,0.30694 -0.36448,1.932585 -1.03906,4.627179 -0.88116,3.519798 -1.02296,4.181434 -0.92878,4.333696 0.0611,0.09883 0.39194,0.513257 0.73514,0.920943 0.57174,0.679184 0.65139,0.741193 0.95125,0.740596 0.17999,-3.58e-4 1.90409,-0.08093 3.83133,-0.179045 4.58263,-0.233302 4.82582,-0.231878 5.39154,0.03157 0.46539,0.21672 0.91395,0.655493 1.18602,1.160136 0.11111,0.206106 0.15739,0.500124 0.15891,1.009579 l 0.002,0.718785 -1.86435,3.940764 c -1.02539,2.16742 -1.86435,3.97072 -1.86435,4.00734 0,0.0744 0.97386,1.89752 1.06916,2.0015 0.0334,0.0365 1.97975,0.35124 4.32515,0.69947 4.62206,0.68627 4.92731,0.76326 5.44248,1.37271 0.60304,0.71339 0.77637,1.79056 0.41599,2.58512 -0.0992,0.21875 -1.31723,1.92766 -2.70668,3.79758 -1.38945,1.86991 -2.52627,3.43709 -2.52627,3.48262 0,0.0827 0.62117,2.17008 0.65564,2.20322 0.01,0.01 1.83715,0.6691 4.06028,1.46547 2.22313,0.79637 4.1909,1.54646 4.37282,1.66685 0.66645,0.44103 1.0641,1.21506 1.0641,2.0713 0,0.3639 -0.0683,0.60286 -0.29201,1.02157 -0.25504,0.47735 -0.6958,0.91193 -3.48161,3.43276 -1.75429,1.58741 -3.19943,2.95216 -3.21142,3.03276 -0.012,0.0806 0.0284,0.61152 0.0898,1.17981 l 0.11166,1.03325 3.81218,2.29474 c 3.45392,2.07909 3.83997,2.33509 4.10802,2.72405 0.64272,0.93264 0.64272,1.87807 0,2.8107 -0.26805,0.38897 -0.6541,0.64496 -4.10802,2.72405 l -3.81218,2.29474 -0.11166,1.03326 c -0.0614,0.56829 -0.10184,1.0992 -0.0898,1.17981 0.012,0.0806 1.45713,1.44534 3.21142,3.03276 2.78581,2.52082 3.22657,2.9554 3.48161,3.43276 0.22371,0.41871 0.29201,0.65766 0.29201,1.02157 0,0.85623 -0.39765,1.63026 -1.0641,2.0713 -0.18192,0.12039 -2.14969,0.87047 -4.37282,1.66684 -2.22313,0.79638 -4.05147,1.45705 -4.06296,1.46815 -0.038,0.0367 -0.65296,2.10332 -0.65296,2.19425 0,0.049 1.13682,1.61901 2.52627,3.48892 1.38945,1.86991 2.60746,3.57882 2.70668,3.79758 0.36038,0.79455 0.18705,1.87173 -0.41599,2.58512 -0.51517,0.60945 -0.82042,0.68644 -5.44248,1.3727 -2.3454,0.34824 -4.29172,0.663 -4.32515,0.69947 -0.0953,0.10399 -1.06916,1.92707 -1.06916,2.0015 0,0.0366 0.83896,1.83993 1.86435,4.00735 l 1.86435,3.94076 -0.002,0.71878 c -0.002,0.50946 -0.0478,0.80348 -0.15891,1.00958 -0.27207,0.50465 -0.72063,0.94342 -1.18602,1.16014 -0.56572,0.26344 -0.80891,0.26487 -5.39154,0.0316 -1.92724,-0.0981 -3.65455,-0.17869 -3.83846,-0.17904 -0.31254,-6.1e-4 -0.37934,0.0537 -1.0222,0.83036 -0.3783,0.45705 -0.70471,0.87502 -0.72535,0.92882 -0.0206,0.0538 0.42924,1.96357 0.99974,4.24393 0.67235,2.68751 1.03696,4.31259 1.03639,4.6193 -0.002,1.22597 -1.08479,2.30797 -2.31419,2.31309 -0.30995,0.001 -1.90617,-0.35676 -4.62718,-1.03796 -3.5198,-0.88116 -4.18143,-1.02296 -4.33369,-0.92878 -0.0988,0.0611 -0.51326,0.39194 -0.92095,0.73514 -0.67918,0.57174 -0.74119,0.65139 -0.74059,0.95125 3.6e-4,0.17999 0.0809,1.90409 0.17904,3.83133 0.2333,4.58263 0.23188,4.82582 -0.0316,5.39154 -0.21672,0.46539 -0.6555,0.91395 -1.16014,1.18602 -0.20611,0.11111 -0.50012,0.15739 -1.00958,0.15891 l -0.71878,0.002 -3.94077,-1.86435 c -2.16742,-1.02539 -3.97072,-1.86435 -4.00734,-1.86435 -0.0744,0 -1.89749,0.97385 -2.00147,1.06914 -0.0365,0.0334 -0.35145,1.97973 -0.7,4.32514 -0.68672,4.62108 -0.76425,4.92861 -1.37219,5.44251 -0.65274,0.55176 -1.63724,0.75026 -2.42753,0.48944 -0.1884,-0.0622 -1.76509,-1.16726 -3.50377,-2.45574 -1.73868,-1.28848 -3.33159,-2.46373 -3.5398,-2.61166 l -0.37857,-0.26896 -1.11661,0.3422 -1.11661,0.3422 -1.41283,3.96302 c -0.77706,2.17967 -1.50919,4.13189 -1.62696,4.33827 -0.42635,0.74716 -1.23603,1.1971 -2.15419,1.1971 -0.3586,0 -0.60013,-0.0694 -1.01685,-0.292 -0.47748,-0.25511 -0.91107,-0.69503 -3.43154,-3.48162 -1.58675,-1.75428 -2.9515,-3.19942 -3.03278,-3.21142 -0.0813,-0.012 -0.61273,0.0284 -1.18102,0.0898 l -1.03326,0.11166 -2.29474,3.81218 c -2.07909,3.45392 -2.33508,3.83997 -2.72405,4.10802 -0.66388,0.4575 -1.38089,0.58864 -2.09192,0.38261 z m 6.43685,-22.94031 c 6.02406,-0.60684 11.3669,-1.85543 16.75668,-3.91592 1.45906,-0.5578 3.97033,-1.64634 4.22104,-1.82966 0.12521,-0.0916 0.32588,-1.19556 1.04033,-5.72337 0.48685,-3.08547 0.95058,-5.85239 1.03051,-6.14871 0.44152,-1.63686 1.79609,-2.98995 3.41545,-3.41174 0.94935,-0.24728 1.64146,-0.17757 7.58491,0.76388 l 5.69096,0.90147 0.22198,-0.20514 c 0.37234,-0.34408 2.15161,-2.38758 3.07314,-3.52952 7.05081,-8.7372 11.60642,-19.15526 13.20103,-30.18898 0.51611,-3.57115 0.59078,-4.73106 0.58992,-9.16451 -7.6e-4,-3.95419 -0.0366,-4.6855 -0.37002,-7.55886 l -0.0535,-0.46086 -2.79665,-1.41737 c -1.53817,-0.77956 -2.99882,-1.52686 -3.2459,-1.66067 -0.24709,-0.13381 -1.39375,-0.71939 -2.54815,-1.30129 -2.31742,-1.16814 -2.94683,-1.63556 -3.55192,-2.63782 -0.64791,-1.07317 -0.85976,-2.53031 -0.54447,-3.74498 0.0831,-0.32003 1.21286,-2.64755 2.80776,-5.78437 1.46781,-2.88688 2.68075,-5.29709 2.69541,-5.35602 0.0147,-0.0589 -0.31154,-0.68981 -0.72489,-1.40196 -2.77568,-4.78209 -6.07654,-9.06255 -10.03713,-13.01586 -8.02343,-8.008669 -18.09914,-13.704281 -29.06737,-16.431249 -1.38115,-0.343387 -3.22457,-0.729747 -3.48181,-0.729747 -0.14328,0 -1.41507,1.212809 -4.51344,4.304118 -3.73247,3.723965 -4.38955,4.34174 -4.87487,4.583236 -1.48321,0.738039 -3.05812,0.7378 -4.53858,-6.88e-4 -0.48451,-0.241689 -1.14872,-0.866053 -4.875737,-4.583236 -3.0646,-3.056524 -4.37186,-4.30343 -4.51173,-4.30343 -0.1083,0 -0.77448,0.122517 -1.48039,0.272261 -17.221911,3.653241 -32.317916,14.655792 -41.174346,30.009445 -0.376517,0.65274 -0.672442,1.23572 -0.657611,1.29553 0.01483,0.0598 1.227905,2.47072 2.695721,5.3576 1.594896,3.13682 2.724685,5.46434 2.807754,5.78437 0.07645,0.29453 0.139,0.86642 0.139,1.27087 0,1.36641 -0.523742,2.5453 -1.562474,3.51698 -0.516135,0.48282 -0.999794,0.75307 -4.87369,2.72323 -2.365379,1.20296 -4.771318,2.43147 -5.346531,2.73 l -1.04584,0.5428 -0.09877,0.89922 c -0.30052,2.73594 -0.32216,3.21511 -0.322628,7.14367 -5.29e-4,4.45197 0.06383,5.45505 0.582806,9.08288 1.543064,10.78664 6.025907,21.18075 12.83346,29.7562 1.016282,1.2802 2.939326,3.51342 3.407456,3.95705 l 0.267001,0.25302 2.055387,-0.32649 c 1.130462,-0.17956 3.68638,-0.58656 5.679818,-0.90442 3.825926,-0.61007 4.637095,-0.67459 5.536345,-0.44036 1.606781,0.41851 2.951422,1.74755 3.406009,3.3665 0.07632,0.27179 0.525741,2.9605 0.99872,5.9749 0.47298,3.01441 0.880713,5.57511 0.906073,5.69044 0.05622,0.25568 1.053842,0.74049 3.694112,1.79522 5.99606,2.3953 12.16644,3.79971 19.004055,4.32543 1.68951,0.1299 8.24929,0.0488 9.9556,-0.12309 z m -42.878893,-5.00729 c 1.171896,-0.22326 2.471325,-1.20014 3.105974,-2.335 0.421267,-0.75329 0.599371,-1.47111 0.598066,-2.41039 -0.0019,-1.35579 -0.396481,-2.34971 -1.324956,-3.33732 -1.497967,-1.59337 -3.853436,-1.9786 -5.816906,-0.95135 -0.69079,0.36141 -1.632545,1.30317 -1.993955,1.99396 -0.978022,1.86936 -0.673647,4.12989 0.758207,5.63103 1.257184,1.31803 2.765087,1.77266 4.67357,1.40907 z m 76.527023,-0.004 c 0.76227,-0.16007 1.54395,-0.58873 2.19699,-1.20477 1.60919,-1.51803 1.99766,-3.87131 0.96259,-5.83121 -0.36836,-0.69749 -1.30754,-1.63843 -1.99155,-1.99526 -1.96666,-1.02597 -4.31926,-0.64088 -5.81691,0.95216 -0.92847,0.98761 -1.32307,1.98152 -1.32495,3.33732 -0.002,1.59093 0.64045,2.93381 1.85101,3.86774 1.14352,0.88222 2.60668,1.1924 4.12282,0.87402 z m 24.16636,-72.93152 c 1.31978,-0.46387 2.4512,-1.59295 2.93821,-2.93215 0.27088,-0.74488 0.33057,-2.1586 0.1215,-2.87775 -0.63745,-2.19278 -2.50146,-3.63273 -4.70255,-3.63273 -1.32999,0 -2.46905,0.47542 -3.44116,1.43626 -1.87695,1.85516 -1.91979,4.84997 -0.0967,6.76126 1.35227,1.41771 3.33433,1.89407 5.18074,1.24511 z m -124.224074,0.13046 c 0.770531,-0.20509 1.445006,-0.59133 2.087668,-1.19551 2.001723,-1.88187 2.042702,-5.01214 0.09087,-6.94132 -3.088476,-3.05265 -8.28127,-0.91754 -8.275338,3.40255 0.0016,1.18061 0.289545,2.07145 0.95193,2.94528 0.646004,0.85222 1.605861,1.50775 2.613196,1.78467 0.581947,0.15998 1.938143,0.1623 2.531673,0.004 z M 105.84798,84.732825 c 1.75423,-0.371736 3.25449,-1.799801 3.69802,-3.520043 0.1804,-0.69967 0.18253,-1.816572 0.005,-2.499045 -0.45117,-1.732166 -1.93007,-3.135183 -3.70012,-3.510251 -0.76543,-0.162194 -1.25874,-0.163059 -2.01134,-0.0035 -1.78261,0.377865 -3.26525,1.779457 -3.71699,3.513779 -0.177757,0.682473 -0.175627,1.799375 0.005,2.499045 0.53118,2.060202 2.52383,3.616513 4.66454,3.643116 0.24708,0.0031 0.72244,-0.05231 1.05636,-0.123073 z"
       id="path2" /></g></svg>
